<mxfile host="app.diagrams.net" modified="2022-08-12T02:42:57.579Z" agent="5.0 (Windows NT 10.0; Win64; x64) AppleWebKit/537.36 (KHTML, like Gecko) Chrome/104.0.0.0 Safari/537.36" etag="X12pN0X4WivC01Kq80uf" version="20.2.3" type="github">
  <diagram id="xJd9kGffHeGnBvwQgc9U" name="페이지-1">
    <mxGraphModel dx="2249" dy="762" grid="1" gridSize="10" guides="1" tooltips="1" connect="1" arrows="1" fold="1" page="1" pageScale="1" pageWidth="827" pageHeight="1169" math="0" shadow="0">
      <root>
        <mxCell id="0" />
        <mxCell id="1" parent="0" />
        <mxCell id="8StYB_W9WACNz83DRNvp-1" value="이용자" style="shape=umlActor;verticalLabelPosition=bottom;verticalAlign=top;html=1;outlineConnect=0;" vertex="1" parent="1">
          <mxGeometry x="-740" y="90" width="40" height="70" as="geometry" />
        </mxCell>
        <mxCell id="8StYB_W9WACNz83DRNvp-2" value="게시판 서비스" style="shape=umlFrame;whiteSpace=wrap;html=1;width=100;height=30;" vertex="1" parent="1">
          <mxGeometry x="-620" y="20" width="550" height="710" as="geometry" />
        </mxCell>
        <mxCell id="8StYB_W9WACNz83DRNvp-5" value="회원가입" style="rounded=1;whiteSpace=wrap;html=1;arcSize=40;fontColor=#000000;fillColor=#ffffc0;strokeColor=#ff0000;" vertex="1" parent="1">
          <mxGeometry x="-600" y="230" width="120" height="40" as="geometry" />
        </mxCell>
        <mxCell id="8StYB_W9WACNz83DRNvp-7" value="게시판 보기" style="rounded=1;whiteSpace=wrap;html=1;arcSize=40;fontColor=#000000;fillColor=#ffffc0;strokeColor=#ff0000;" vertex="1" parent="1">
          <mxGeometry x="-600" y="355" width="120" height="40" as="geometry" />
        </mxCell>
        <mxCell id="8StYB_W9WACNz83DRNvp-8" value="게시글 보기" style="rounded=1;whiteSpace=wrap;html=1;arcSize=40;fontColor=#000000;fillColor=#ffffc0;strokeColor=#ff0000;" vertex="1" parent="1">
          <mxGeometry x="-600" y="570" width="120" height="40" as="geometry" />
        </mxCell>
        <mxCell id="8StYB_W9WACNz83DRNvp-9" value="회원 로그인" style="rounded=1;whiteSpace=wrap;html=1;arcSize=40;fontColor=#000000;fillColor=#ffffc0;strokeColor=#ff0000;" vertex="1" parent="1">
          <mxGeometry x="-400" y="60" width="120" height="40" as="geometry" />
        </mxCell>
        <mxCell id="8StYB_W9WACNz83DRNvp-10" value="인증" style="rounded=1;whiteSpace=wrap;html=1;arcSize=40;fontColor=#000000;fillColor=#ffffc0;strokeColor=#ff0000;" vertex="1" parent="1">
          <mxGeometry x="-230" y="60" width="120" height="40" as="geometry" />
        </mxCell>
        <mxCell id="8StYB_W9WACNz83DRNvp-11" value="로그인 실패" style="rounded=1;whiteSpace=wrap;html=1;arcSize=40;fontColor=#000000;fillColor=#ffffc0;strokeColor=#ff0000;" vertex="1" parent="1">
          <mxGeometry x="-230" y="190" width="120" height="40" as="geometry" />
        </mxCell>
        <mxCell id="8StYB_W9WACNz83DRNvp-12" value="게시판 정렬&lt;br&gt;" style="rounded=1;whiteSpace=wrap;html=1;arcSize=40;fontColor=#000000;fillColor=#ffffc0;strokeColor=#ff0000;" vertex="1" parent="1">
          <mxGeometry x="-390" y="355" width="120" height="40" as="geometry" />
        </mxCell>
        <mxCell id="8StYB_W9WACNz83DRNvp-13" value="게시판 검색&lt;br&gt;" style="rounded=1;whiteSpace=wrap;html=1;arcSize=40;fontColor=#000000;fillColor=#ffffc0;strokeColor=#ff0000;" vertex="1" parent="1">
          <mxGeometry x="-390" y="420" width="120" height="40" as="geometry" />
        </mxCell>
        <mxCell id="8StYB_W9WACNz83DRNvp-15" value="게시글 쓰기,수정,삭제&lt;br&gt;" style="rounded=1;whiteSpace=wrap;html=1;arcSize=40;fontColor=#000000;fillColor=#ffffc0;strokeColor=#ff0000;" vertex="1" parent="1">
          <mxGeometry x="-400" y="585" width="120" height="40" as="geometry" />
        </mxCell>
        <mxCell id="8StYB_W9WACNz83DRNvp-16" value="댓글 보기,쓰기&lt;br&gt;삭제,수정" style="rounded=1;whiteSpace=wrap;html=1;arcSize=40;fontColor=#000000;fillColor=#ffffc0;strokeColor=#ff0000;" vertex="1" parent="1">
          <mxGeometry x="-400" y="640" width="120" height="40" as="geometry" />
        </mxCell>
      </root>
    </mxGraphModel>
  </diagram>
</mxfile>
